<svg version="1.2" xmlns="http://www.w3.org/2000/svg" viewBox="0 0 607 94" width="607" height="94">
	<title>appsumologo-svg</title>
	<style>
		.s0 { fill: #ffffff } 
	</style>
	<path id="Layer" fill-rule="evenodd" class="s0" d="m381.8 13.8h18.4v46.8c0 18-12 30.8-29.2 30.8-17.2 0-29.2-12.8-29.2-30.8v-46.8h18.4v44c0 15.6 7.2 15.6 10.8 15.6 3.6 0 10.8 0 10.8-15.6zm221.2 38.4c0 22.4-18.4 40.8-40.8 40.8-22.4 0-40.8-18.4-40.8-40.8 0-22.8 18.4-40.8 40.8-40.8 22.4 0 40.8 18.4 40.8 40.8zm-18.8-0.8v-0.4c-0.4-12-10.4-21.6-22.4-21.6-12 0.4-21.6 10.4-21.6 22.4 0 12.4 9.6 22.4 22 22.4 12 0 22-10 22-22.8zm-498.8 39.2h-20.8l-8-17.2h-24.8l-8 17.2h-20.8l41.2-89.6zm-34-32.4l-7.6-18.8-7.6 18.8zm110.4-17.6v0.4c0 16.8-11.6 27.2-30 27.2h-10v21.6h-18.8v-75.6h30c18 0 29.2 10 28.8 26.4zm-30.4-9.2h-9.6v20.8h9.6c7.2 0 11.6-4 11.6-10.4 0-6.8-4-10.8-11.6-10.4zm108 9.2v0.4c0 16.8-11.6 27.2-30 27.2h-10v21.6h-18.8v-75.6h30c18 0 29.2 10 28.8 26.4zm-30.4-9.2h-9.6v20.8h9.6c7.2 0 11.6-4 11.6-10.4 0-6.8-4-10.8-11.6-10.4zm114.4 33.2v0.4c0 16.8-12.4 27.2-32.4 27.2-13.6 0-26.8-4.8-36.8-14l-0.4-0.4 12-14.4 0.4 0.4c6.8 6.4 16 10 25.2 10.4 7.2 0 11.6-2.8 11.6-7.6v-0.4c0-4.4-2.4-6.8-16.8-10.4-16.8-4-29.2-8.8-29.2-26.8v-0.4c0-15.6 12.8-26.4 30.8-26.4 11.6 0 23.2 4 32.4 11.2l0.4 0.4-10.4 15.2-0.4-0.4c-6.4-5.2-14-8-22-8.4-6.4 0-10.4 2.8-10.4 6.8v0.4c0 5.2 3.2 6.8 18 10.8 16.8 4 28 10.4 28 26.4zm138.8 29.2l-22.8-38.4-6.8 35.6h-16.4l16.8-79.6 29.6 50 28-50 16.8 79.6h-17.6l-6.4-35.2z"/>
</svg>