<?xml version="1.0" encoding="utf-8"?>
<!-- Generator: Adobe Illustrator 19.2.1, SVG Export Plug-In . SVG Version: 6.00 Build 0)  -->
<svg version="1.1" id="layer" xmlns="http://www.w3.org/2000/svg" xmlns:xlink="http://www.w3.org/1999/xlink" x="0px" y="0px"
	 viewBox="0 0 652 652" style="enable-background:new 0 0 652 652;" xml:space="preserve">
<style type="text/css">
	.st0{fill:#343D45;}
</style>
<path class="st0" d="M401.8,331.8c0,15.6-7.2,15.6-10.8,15.6s-10.8,0-10.8-15.6v-44h-18.4v46.8c0,18,12,30.8,29.2,30.8
	s29.2-12.8,29.2-30.8v-46.8h-18.4V331.8z M582.2,285.4c-22.4,0-40.8,18-40.8,40.8c0,22.4,18.4,40.8,40.8,40.8
	c22.4,0,40.8-18.4,40.8-40.8S604.6,285.4,582.2,285.4z M582.2,348.2c-12.4,0-22-10-22-22.4c0-12,9.6-22,21.6-22.4
	c12,0,22,9.6,22.4,21.6v0.4C604.2,338.2,594.2,348.2,582.2,348.2z M64.2,275L23,364.6h20.8l8-17.2h24.8l8,17.2h20.8L64.2,275z
	 M56.2,332.2l7.6-18.8l7.6,18.8H56.2z M153,288.2h-30v75.6h18.8v-21.6h10c18.4,0,30-10.4,30-27.2v-0.4
	C182.2,298.2,171,288.2,153,288.2z M163,315.8c0,6.4-4.4,10.4-11.6,10.4h-9.6v-20.8h9.6C159,305,163,309,163,315.8L163,315.8z
	 M230.6,288.2h-30v75.6h18.8v-21.6h10c18.4,0,30-10.4,30-27.2v-0.4C259.8,298.2,248.6,288.2,230.6,288.2z M240.6,315.8
	c0,6.4-4.4,10.4-11.6,10.4h-9.6v-20.8h9.6C236.6,305,240.6,309,240.6,315.8L240.6,315.8z M315.4,312.2c-14.8-4-18-5.6-18-10.8V301
	c0-4,4-6.8,10.4-6.8c8,0.4,15.6,3.2,22,8.4l0.4,0.4l10.4-15.2l-0.4-0.4c-9.2-7.2-20.8-11.2-32.4-11.2c-18,0-30.8,10.8-30.8,26.4v0.4
	c0,18,12.4,22.8,29.2,26.8c14.4,3.6,16.8,6,16.8,10.4v0.4c0,4.8-4.4,7.6-11.6,7.6c-9.2-0.4-18.4-4-25.2-10.4l-0.4-0.4l-12,14.4
	l0.4,0.4c10,9.2,23.2,14,36.8,14c20,0,32.4-10.4,32.4-27.2v-0.4C343.4,322.6,332.2,316.2,315.4,312.2z M482.2,367.8l-22.8-38.4
	l-6.8,35.6h-16.4l16.8-79.6l29.6,50l28-50l16.8,79.6h-17.6l-6.4-35.2L482.2,367.8z"/>
</svg>
